<svg width="13" height="13" viewBox="0 0 13 13" fill="none" xmlns="http://www.w3.org/2000/svg">
<path d="M6.5 11.8045C7.5878 11.8045 8.65116 11.4819 9.55563 10.8776C10.4601 10.2732 11.1651 9.41426 11.5813 8.40926C11.9976 7.40427 12.1065 6.2984 11.8943 5.23151C11.6821 4.16461 11.1583 3.18461 10.3891 2.41542C9.6199 1.64623 8.63989 1.12241 7.57299 0.910188C6.5061 0.697969 5.40023 0.806887 4.39524 1.22317C3.39025 1.63945 2.53126 2.3444 1.92692 3.24887C1.32257 4.15334 1 5.21671 1 6.30451C1 7.21384 1.22 8.07062 1.61111 8.82656L1 11.8045L3.97794 11.1934C4.73328 11.5839 5.59128 11.8045 6.5 11.8045Z" stroke="white" stroke-linecap="round" stroke-linejoin="round"/>
</svg>
