<svg width="20" height="20" viewBox="0 0 20 20" fill="none" xmlns="http://www.w3.org/2000/svg">
<path d="M19.7793 0.173719C19.6915 0.0886968 19.5848 0.0321677 19.4706 0.0102313C19.3563 -0.0117051 19.2389 0.00178399 19.131 0.049243L0.706715 8.14117C0.482617 8.23957 0.293017 8.41692 0.166388 8.64657C0.0397586 8.87623 -0.0170633 9.14579 0.00445548 9.41477C0.0259743 9.68376 0.124672 9.93765 0.285727 10.1383C0.446781 10.339 0.661498 10.4756 0.897631 10.5276L5.81782 11.6122V17.7533C5.81792 18.038 5.89383 18.3162 6.0358 18.5521C6.17777 18.7881 6.37932 18.971 6.6146 19.0775C6.84987 19.184 7.10813 19.2091 7.35623 19.1497C7.60433 19.0903 7.83094 18.949 8.00699 18.744L10.4289 15.925L14.209 19.6439C14.4398 19.8731 14.7373 19.9997 15.0454 20C15.18 19.9997 15.3137 19.9759 15.4418 19.9296C15.6518 19.855 15.8407 19.72 15.9897 19.5379C16.1387 19.3558 16.2426 19.1331 16.2909 18.892L19.9838 0.874658C20.0098 0.747993 20.0044 0.615778 19.9684 0.49226C19.9323 0.368743 19.8669 0.258607 19.7793 0.173719ZM1.09491 9.32266C1.09143 9.31213 1.09143 9.30054 1.09491 9.29001C1.09901 9.28644 1.10362 9.28368 1.10855 9.28185L15.6282 2.903L6.23692 10.4531L1.10855 9.32674L1.09491 9.32266ZM7.22151 17.8931C7.19645 17.9223 7.16422 17.9424 7.12892 17.951C7.09362 17.9595 7.05686 17.9561 7.02331 17.9411C6.98976 17.9261 6.96095 17.9002 6.94056 17.8668C6.92016 17.8333 6.90909 17.7938 6.90877 17.7533V12.459L9.60796 15.1118L7.22151 17.8931ZM15.2282 18.6155C15.2215 18.65 15.2066 18.6818 15.1852 18.7076C15.1638 18.7335 15.1365 18.7524 15.1063 18.7624C15.0756 18.7745 15.0424 18.7771 15.0105 18.7699C14.9785 18.7628 14.9488 18.7461 14.9245 18.7216L7.23969 11.1561L18.6365 1.98984L15.2282 18.6155Z" fill="#FF8D08"/>
</svg>
